{"title":"Stone 2010 R5 MIC 5 1 XVID AC3 HQ Hive-CM8  (BX)","uid":5940746,"size":1700375992,"categoryP":"video","categoryS":"movies","magnet":"?xt=urn:btih:ebce4e2a2ecc03fbadf3c12387a39884df6d9d75&amp;dn=Stone+2010+R5+MIC+5+1+XVID+AC3+HQ+Hive-CM8++%28BX%29&amp;tr=udp%3A%2F%2Ftracker.openbittorrent.com%3A80&amp;tr=udp%3A%2F%2Fopen.demonii.com%3A1337&amp;tr=udp%3A%2F%2Ftracker.coppersurfer.tk%3A6969&amp;tr=udp%3A%2F%2Fexodus.desync.com%3A6969","seeders":0,"leechers":0,"uploader":"Kill3rK","files":3,"time":1289161648,"description":"Clean Scene Releases   &lt;a href=&quot; http://bitxtre.me/&quot; rel=&quot;nofollow&quot; target=&quot;_NEW&quot;&gt; http://bitxtre.me/&lt;/a&gt;\n\n\n-------------------------------------------------------------------------------------\n                                   nfo\n\n\n\n\nÃ‚Â»Ã‚Â¿Stone.2010.R5.MIC.5.1.XVID.AC3.HQ.Hive-CM8\n &lt;a href=&quot;\nhttp://img571.imageshack.us/img571/2592/stoney.jpg&quot; rel=&quot;nofollow&quot; target=&quot;_NEW&quot;&gt;\nhttp://img571.imageshack.us/img571/2592/stoney.jpg&lt;/a&gt;\n\nThx Hive\n\nCM8 Doing It Right The First Time\n\nSources:\nVideo: Russian DVD5\nStoun.2010.DVD5\nAudio: Stone 2010 R5 MiC Xvid Noir\nthx\n\nEncode Video:\nadded sharpness,bit brightness, denoise,rgb\n\nEncode Audio:\nwell the mic itself is just a mic, removed noise,hiss,some scratches. added gain,the voices are loud and clear unlike the previous mics eg &quot;you again&quot;. \ni added the ac3 effects from the russian ac3 5.1 effects, which makes it more complete and hearable, and since the mic is strong it doesnt get lost within the effects.\nwatch sample\n\nif a nice line comes up i will do a proper 5.1 audio only\n\nVideo: 720x400   @bitrate 1800 2pass\nAudio: MIC AC3 5.1 @448\nSample: yes included\n\n\n[img]http://img513.imageshack.us/img513/6299/sto1.png[/img]\n[img]http://img143.imageshack.us/img143/5762/sto2.png[/img]\n[img]http://img442.imageshack.us/img442/5006/sto3.png[/img]\n\n\nGeneral\nComplete name                    : Stone.2010.R5.MIC.5.1.XVID.AC3.HQ.Hive-CM8.avi\nFormat                           : AVI\nFormat/Info                      : Audio Video Interleave\nFile size                        : 1.58 GiB\nDuration                         : 1h 40mn\nOverall bit rate                 : 2 242 Kbps\nWriting application              : Nandub v1.0rc2\nWriting library                  : Nandub build 1853/release\n\nVideo\nID                               : 0\nFormat                           : MPEG-4 Visual\nFormat profile                   : Advanced Simple@L5\nFormat settings, BVOP            : Yes\nFormat settings, QPel            : Yes\nFormat settings, GMC             : No warppoints\nFormat settings, Matrix          : Default (H.263)\nMuxing mode                      : Packed bitstream\nCodec ID                         : XVID\nCodec ID/Hint                    : XviD\nDuration                         : 1h 40mn\nBit rate                         : 1 800 Kbps\nWidth                            : 720 pixels\nHeight                           : 400 pixels\nDisplay aspect ratio             : 16:9\nFrame rate                       : 25.000 fps\nColor space                      : YUV\nChroma subsampling               : 4:2:0\nBit depth                        : 8 bits\nScan type                        : Progressive\nBits/(Pixel*Frame)               : 0.250\nStream size                      : 1.27 GiB (80%)\nWriting library                  : XviD 1.2.1 (UTC 2008-12-04)\n\nAudio\nID                               : 1\nFormat                           : AC-3\nFormat/Info                      : Audio Coding 3\nMode extension                   : CM (complete main)\nCodec ID                         : 2000\nDuration                         : 1h 37mn\nBit rate mode                    : Constant\nBit rate                         : 448 Kbps\nChannel(s)                       : 6 channels\nChannel positions                : Front: L C R, Side: L R, LFE\nSampling rate                    : 48.0 KHz\nBit depth                        : 16 bits\nStream size                      : 312 MiB (19%)\nAlignment                        : Split accross interleaves\nInterleave, duration             : 41 ms (1.04 video frame)\nInterleave, preload duration     : 500 ms\n","torrent":{"xt":"urn:btih:ebce4e2a2ecc03fbadf3c12387a39884df6d9d75","amp;dn":"Stone+2010+R5+MIC+5+1+XVID+AC3+HQ+Hive-CM8++%28BX%29","amp;tr":["udp%3A%2F%2Ftracker.openbittorrent.com%3A80","udp%3A%2F%2Fopen.demonii.com%3A1337","udp%3A%2F%2Ftracker.coppersurfer.tk%3A6969","udp%3A%2F%2Fexodus.desync.com%3A6969"],"infoHash":"ebce4e2a2ecc03fbadf3c12387a39884df6d9d75","infoHashBuffer":{"type":"Buffer","data":[235,206,78,42,46,204,3,251,173,243,193,35,135,163,152,132,223,109,157,117]},"announce":[],"urlList":[]}}